<svg width="87" height="82" viewBox="0 0 87 82" fill="none" xmlns="http://www.w3.org/2000/svg">
<path d="M44.2425 0C35.2627 0 28 7.73129 28 17.2904C28 30.2582 44.2425 49.4012 44.2425 49.4012C44.2425 49.4012 60.485 30.2582 60.485 17.2904C60.485 7.73129 53.2223 0 44.2425 0ZM32.6407 17.2904C32.6407 10.4731 37.8383 4.94012 44.2425 4.94012C50.6467 4.94012 55.8443 10.4731 55.8443 17.2904C55.8443 24.4042 49.1617 35.0501 44.2425 41.6946C39.4162 35.0995 32.6407 24.3301 32.6407 17.2904Z" fill="white"/>
<path d="M44.2426 23.4655C47.4463 23.4655 50.0435 20.7008 50.0435 17.2904C50.0435 13.8799 47.4463 11.1152 44.2426 11.1152C41.0388 11.1152 38.4417 13.8799 38.4417 17.2904C38.4417 20.7008 41.0388 23.4655 44.2426 23.4655Z" fill="white"/>
<path d="M14.374 77H10.954L9.964 74.498H5.032L4.096 77H0.748L6.094 64.256H9.082L14.374 77ZM9.118 72.032L7.534 67.658L5.914 72.032H9.118ZM27.3253 70.592C27.3253 71.672 27.1213 72.632 26.7133 73.472C26.3053 74.312 25.7533 74.984 25.0573 75.488C24.3733 75.992 23.6173 76.37 22.7893 76.622C21.9613 76.874 21.0913 77 20.1793 77H15.4273V64.256H20.0353C20.7913 64.256 21.5053 64.322 22.1773 64.454C22.8613 64.574 23.5213 64.79 24.1573 65.102C24.7933 65.414 25.3393 65.804 25.7953 66.272C26.2633 66.74 26.6353 67.346 26.9113 68.09C27.1873 68.822 27.3253 69.656 27.3253 70.592ZM24.1213 70.592C24.1213 69.908 24.0073 69.32 23.7793 68.828C23.5513 68.324 23.2333 67.934 22.8253 67.658C22.4293 67.382 21.9913 67.184 21.5113 67.064C21.0433 66.944 20.5273 66.884 19.9633 66.884H18.4333V74.336H19.8913C21.1273 74.336 22.1413 74.042 22.9333 73.454C23.7253 72.866 24.1213 71.912 24.1213 70.592ZM41.2647 70.592C41.2647 71.672 41.0607 72.632 40.6527 73.472C40.2447 74.312 39.6927 74.984 38.9967 75.488C38.3127 75.992 37.5567 76.37 36.7287 76.622C35.9007 76.874 35.0307 77 34.1187 77H29.3667V64.256H33.9747C34.7307 64.256 35.4447 64.322 36.1167 64.454C36.8007 64.574 37.4607 64.79 38.0967 65.102C38.7327 65.414 39.2787 65.804 39.7347 66.272C40.2027 66.74 40.5747 67.346 40.8507 68.09C41.1267 68.822 41.2647 69.656 41.2647 70.592ZM38.0607 70.592C38.0607 69.908 37.9467 69.32 37.7187 68.828C37.4907 68.324 37.1727 67.934 36.7647 67.658C36.3687 67.382 35.9307 67.184 35.4507 67.064C34.9827 66.944 34.4667 66.884 33.9027 66.884H32.3727V74.336H33.8307C35.0667 74.336 36.0807 74.042 36.8727 73.454C37.6647 72.866 38.0607 71.912 38.0607 70.592ZM53.7282 77H50.1282L47.3742 71.942H46.3302V77H43.3062V64.256H48.1662C48.8142 64.256 49.4142 64.322 49.9662 64.454C50.5182 64.586 51.0342 64.796 51.5142 65.084C51.9942 65.372 52.3662 65.774 52.6302 66.29C52.9062 66.806 53.0442 67.412 53.0442 68.108C53.0442 68.948 52.8102 69.668 52.3422 70.268C51.8742 70.868 51.2262 71.294 50.3982 71.546L53.7282 77ZM50.0022 68.162C50.0022 67.214 49.3182 66.74 47.9502 66.74H46.3122V69.71H47.7702C49.2582 69.71 50.0022 69.194 50.0022 68.162ZM64.1337 77H55.2417V64.256H63.8097V66.866H58.2117V69.26H63.5037V71.726H58.2117V74.372H64.1337V77ZM74.8693 65.498L72.9073 67.568C72.6553 67.244 72.3133 66.98 71.8813 66.776C71.4613 66.572 71.0473 66.47 70.6393 66.47C70.1593 66.47 69.7393 66.572 69.3793 66.776C69.0313 66.968 68.8573 67.292 68.8573 67.748C68.8573 67.952 68.8993 68.132 68.9833 68.288C69.0673 68.432 69.2053 68.564 69.3973 68.684C69.6013 68.792 69.7993 68.888 69.9913 68.972C70.1833 69.044 70.4593 69.134 70.8193 69.242C71.2873 69.398 71.6533 69.524 71.9173 69.62C72.1813 69.716 72.5173 69.878 72.9253 70.106C73.3453 70.322 73.6693 70.55 73.8973 70.79C74.1253 71.03 74.3293 71.354 74.5093 71.762C74.6893 72.158 74.7793 72.596 74.7793 73.076C74.7793 74.456 74.3053 75.512 73.3573 76.244C72.4213 76.964 71.2693 77.324 69.9013 77.324C68.9773 77.324 68.0893 77.162 67.2373 76.838C66.3853 76.514 65.6833 76.064 65.1313 75.488L67.1473 73.436C67.4593 73.832 67.8673 74.156 68.3713 74.408C68.8873 74.66 69.3973 74.786 69.9013 74.786C70.4173 74.786 70.8373 74.678 71.1613 74.462C71.4973 74.234 71.6653 73.88 71.6653 73.4C71.6653 73.208 71.6173 73.04 71.5213 72.896C71.4373 72.74 71.3413 72.614 71.2333 72.518C71.1253 72.41 70.9333 72.296 70.6573 72.176C70.3813 72.056 70.1473 71.966 69.9553 71.906C69.7633 71.834 69.4513 71.726 69.0193 71.582C68.5513 71.426 68.1493 71.264 67.8133 71.096C67.4773 70.928 67.1413 70.706 66.8053 70.43C66.4693 70.154 66.2113 69.806 66.0313 69.386C65.8513 68.966 65.7613 68.48 65.7613 67.928C65.7613 67.256 65.9053 66.656 66.1933 66.128C66.4813 65.588 66.8653 65.168 67.3453 64.868C67.8253 64.556 68.3473 64.322 68.9113 64.166C69.4873 64.01 70.0813 63.932 70.6933 63.932C71.4373 63.932 72.1813 64.07 72.9253 64.346C73.6813 64.61 74.3293 64.994 74.8693 65.498ZM85.5041 65.498L83.5421 67.568C83.2901 67.244 82.9481 66.98 82.5161 66.776C82.0961 66.572 81.6821 66.47 81.2741 66.47C80.7941 66.47 80.3741 66.572 80.0141 66.776C79.6661 66.968 79.4921 67.292 79.4921 67.748C79.4921 67.952 79.5341 68.132 79.6181 68.288C79.7021 68.432 79.8401 68.564 80.0321 68.684C80.2361 68.792 80.4341 68.888 80.6261 68.972C80.8181 69.044 81.0941 69.134 81.4541 69.242C81.9221 69.398 82.2881 69.524 82.5521 69.62C82.8161 69.716 83.1521 69.878 83.5601 70.106C83.9801 70.322 84.3041 70.55 84.5321 70.79C84.7601 71.03 84.9641 71.354 85.1441 71.762C85.3241 72.158 85.4141 72.596 85.4141 73.076C85.4141 74.456 84.9401 75.512 83.9921 76.244C83.0561 76.964 81.9041 77.324 80.5361 77.324C79.6121 77.324 78.7241 77.162 77.8721 76.838C77.0201 76.514 76.3181 76.064 75.7661 75.488L77.7821 73.436C78.0941 73.832 78.5021 74.156 79.0061 74.408C79.5221 74.66 80.0321 74.786 80.5361 74.786C81.0521 74.786 81.4721 74.678 81.7961 74.462C82.1321 74.234 82.3001 73.88 82.3001 73.4C82.3001 73.208 82.2521 73.04 82.1561 72.896C82.0721 72.74 81.9761 72.614 81.8681 72.518C81.7601 72.41 81.5681 72.296 81.2921 72.176C81.0161 72.056 80.7821 71.966 80.5901 71.906C80.3981 71.834 80.0861 71.726 79.6541 71.582C79.1861 71.426 78.7841 71.264 78.4481 71.096C78.1121 70.928 77.7761 70.706 77.4401 70.43C77.1041 70.154 76.8461 69.806 76.6661 69.386C76.4861 68.966 76.3961 68.48 76.3961 67.928C76.3961 67.256 76.5401 66.656 76.8281 66.128C77.1161 65.588 77.5001 65.168 77.9801 64.868C78.4601 64.556 78.9821 64.322 79.5461 64.166C80.1221 64.01 80.7161 63.932 81.3281 63.932C82.0721 63.932 82.8161 64.07 83.5601 64.346C84.3161 64.61 84.9641 64.994 85.5041 65.498Z" fill="white"/>
</svg>
