<?xml version="1.0" encoding="UTF-8" standalone="no"?>
<svg
   width="32.485001"
   height="49.401199"
   viewBox="0 0 32.485001 49.401199"
   fill="none"
   version="1.1"
   id="svg8"
   sodipodi:docname="address.svg"
   inkscape:version="1.2 (dc2aeda, 2022-05-15)"
   xmlns:inkscape="http://www.inkscape.org/namespaces/inkscape"
   xmlns:sodipodi="http://sodipodi.sourceforge.net/DTD/sodipodi-0.dtd"
   xmlns="http://www.w3.org/2000/svg"
   xmlns:svg="http://www.w3.org/2000/svg">
  <defs
     id="defs12" />
  <sodipodi:namedview
     id="namedview10"
     pagecolor="#ffffff"
     bordercolor="#666666"
     borderopacity="1.0"
     inkscape:showpageshadow="2"
     inkscape:pageopacity="0.0"
     inkscape:pagecheckerboard="0"
     inkscape:deskcolor="#d1d1d1"
     showgrid="false"
     inkscape:zoom="2.8780488"
     inkscape:cx="15.461864"
     inkscape:cy="41"
     inkscape:window-width="2560"
     inkscape:window-height="1328"
     inkscape:window-x="1440"
     inkscape:window-y="25"
     inkscape:window-maximized="1"
     inkscape:current-layer="svg8" />
  <path
     d="M 16.2425,0 C 7.2627,0 0,7.73129 0,17.2904 c 0,12.9678 16.2425,32.1108 16.2425,32.1108 0,0 16.2425,-19.143 16.2425,-32.1108 C 32.485,7.73129 25.2223,0 16.2425,0 Z M 4.6407,17.2904 c 0,-6.8173 5.1976,-12.35028 11.6018,-12.35028 6.4042,0 11.6018,5.53298 11.6018,12.35028 0,7.1138 -6.6826,17.7597 -11.6018,24.4042 C 11.4162,35.0995 4.6407,24.3301 4.6407,17.2904 Z"
     fill="white"
     id="path2"
     style="fill:#000000;fill-opacity:1" />
  <path
     d="m 16.2426,23.4655 c 3.2037,0 5.8009,-2.7647 5.8009,-6.1751 0,-3.4105 -2.5972,-6.1752 -5.8009,-6.1752 -3.2038,0 -5.8009,2.7647 -5.8009,6.1752 0,3.4104 2.5971,6.1751 5.8009,6.1751 z"
     fill="white"
     id="path4"
     style="fill:#000000;fill-opacity:1" />
</svg>
