<svg xmlns="http://www.w3.org/2000/svg" viewBox="0 0 272.98 28.35"><defs><style>.prefix__cls-1{fill:#ffffff}</style></defs><g id="prefix__Layer_2" data-name="Layer 2"><g id="prefix__Layer_1-2" data-name="Layer 1"><path class="prefix__cls-1" d="M16.37 10l7.7 13.35H8.66L16.37 10m0-10L0 28.35h32.73L16.37 0zM86.59 5a9.18 9.18 0 11-9.17 9.17A9.18 9.18 0 0186.59 5m0-5a14.18 14.18 0 1014.17 14.17A14.17 14.17 0 0086.59 0zM60.75 5v18.35H42.4V5h18.35m5-5H37.4v28.35h28.35V0zM112.1 3.75h4.72v7.56a5.85 5.85 0 014.55-2c3.92 0 6.61 2.57 6.61 7.24v7.88h-4.75V17c0-2.19-1.16-3.63-3.07-3.6-2.1 0-3.34 1.68-3.34 3.83v7.24h-4.72zM132.47 3.57a2.58 2.58 0 012.72 2.16 2.51 2.51 0 01-2.72 2.18 2.46 2.46 0 01-2.71-2.18 2.49 2.49 0 012.71-2.16zm2.36 6.09v14.76h-4.72V9.66zM142.75 24.42H138V3.75h4.73zM150.31 24.42h-4.73V3.75h4.73zM155.86 3.57a2.58 2.58 0 012.72 2.16 2.51 2.51 0 01-2.72 2.18 2.47 2.47 0 01-2.72-2.18 2.49 2.49 0 012.72-2.16zm2.36 6.09v14.76h-4.72V9.66zM166.46 13.35V9.66h2V5.88h4.72v3.78h3.4v3.69h-3.4v5.78c0 1.3.33 2 1.42 2a5.84 5.84 0 001.8-.32l.89 3.33a10.26 10.26 0 01-3.75.62c-4 0-5.08-2.27-5.08-5.58v-5.83zM181.88 3.57a2.58 2.58 0 012.71 2.16 2.5 2.5 0 01-2.71 2.18 2.47 2.47 0 01-2.72-2.18 2.49 2.49 0 012.72-2.16zm2.36 6.09v14.76h-4.73V9.66zM192.15 24.42h-4.72V3.75h4.72zM195.67 20.17a7.6 7.6 0 004.54 1.21c1 0 1.92-.48 1.92-1.15 0-2.1-8-1.69-8-6.44 0-2.81 2.51-4.49 6.41-4.49a10.2 10.2 0 015.67 1.42l-1.6 3a7.29 7.29 0 00-3.89-1.06c-.77 0-1.95.17-1.95 1 0 1.92 8.09 1.74 8.09 6.5 0 2.86-2.69 4.57-6.67 4.57s-5.61-1.24-6.32-1.74zM211.23 3.57A2.58 2.58 0 01214 5.73a2.51 2.51 0 01-2.72 2.18 2.47 2.47 0 01-2.72-2.18 2.49 2.49 0 012.67-2.16zm2.36 6.09v14.76h-4.72V9.66zM216.72 9.66h4.73v1.68a5.72 5.72 0 014.46-2 5.3 5.3 0 015 3.07 6.07 6.07 0 015.39-3.11c3.48 0 5.93 2.54 5.93 7.24v7.88h-4.72V17c0-2.19-.95-3.6-2.75-3.6s-2.92 1.68-2.92 3.78v7.29h-4.72V17c0-2.19-1-3.6-2.72-3.6s-3 1.68-3 3.83v7.24h-4.73zM244 17.1a7.49 7.49 0 017.26-7.74 6.42 6.42 0 014.79 1.92V9.66h4.72v14.76h-4.72v-1.71a6.15 6.15 0 01-4.7 2A7.45 7.45 0 01244 17.1zm4.58 0a3.74 3.74 0 107.47 0 3.89 3.89 0 00-3.75-4 3.84 3.84 0 00-3.68 3.97zM262.14 13.35V9.66h2V5.88h4.73v3.78h3.39v3.69h-3.39v5.78c0 1.3.32 2 1.41 2a5.84 5.84 0 001.8-.32l.89 3.33a10.26 10.26 0 01-3.75.62c-4 0-5.08-2.27-5.08-5.58v-5.83z"/></g></g></svg>