<svg width="27" height="27" viewBox="0 0 27 27" fill="none" xmlns="http://www.w3.org/2000/svg">
<path d="M2 4.55556C2 3.14416 3.14416 2 4.55556 2H8.7457C9.29569 2 9.78398 2.35194 9.9579 2.87371L11.8718 8.61533C12.0729 9.21858 11.7998 9.8779 11.231 10.1623L8.34673 11.6044C9.75515 14.7282 12.2718 17.2448 15.3956 18.6533L16.8377 15.769C17.1221 15.2002 17.7814 14.9271 18.3847 15.1282L24.1263 17.0421C24.6481 17.216 25 17.7043 25 18.2543V22.4444C25 23.8558 23.8558 25 22.4444 25H21.1667C10.5812 25 2 16.4188 2 5.83333V4.55556Z" stroke="#0BC469" stroke-width="3" stroke-linecap="round" stroke-linejoin="round"/>
</svg>
