<svg width="189" height="47" viewBox="0 0 189 47" fill="none" xmlns="http://www.w3.org/2000/svg">
<path d="M14.3077 8.2128L21.0577 19.1903H7.58654L14.3077 8.2128ZM14.3077 0L0 23.3103H28.6442L14.3077 0ZM75.7788 4.11995C80.1923 4.11995 83.7981 7.50807 83.7981 11.6551C83.7981 15.8022 80.1923 19.1903 75.7788 19.1903C71.3654 19.1903 67.7596 15.8022 67.7596 11.6551C67.7308 7.50807 71.3365 4.11995 75.7788 4.11995ZM75.7788 0C68.9423 0 63.375 5.20415 63.375 11.6551C63.375 18.079 68.9423 23.3103 75.7788 23.3103C82.6154 23.3103 88.1827 18.1061 88.1827 11.6551C88.1827 5.23126 82.6154 0 75.7788 0ZM53.1635 19.1903H37.0962V4.11995H53.1635V19.1903ZM57.5481 0H32.7404V23.3103H57.5481V0ZM47.7115 47H51.8365V41.064C51.8365 39.3022 52.9327 37.9198 54.75 37.9198C56.4231 37.8927 57.4327 39.0854 57.4327 40.8743V47.0271H61.5865V40.549C61.5865 36.7272 59.2212 34.613 55.7885 34.613C54.0288 34.613 52.7019 35.2907 51.8077 36.2664V30.0594H47.6827V47H47.7115ZM65.5385 29.8697C66.8077 29.8697 67.9038 30.7099 67.9038 31.6315C67.9038 32.6344 66.8077 33.4204 65.5385 33.4204C64.1827 33.4204 63.1731 32.6073 63.1731 31.6315C63.1731 30.6828 64.2115 29.8697 65.5385 29.8697ZM67.6154 47H63.4615V34.857H67.5865V47H67.6154ZM74.5385 30.0052H70.4135V47H74.5385V30.0052ZM81.1442 30.0052H77.0192V47H81.1442V30.0052ZM86.0192 29.8697C87.2885 29.8697 88.3846 30.7099 88.3846 31.6315C88.3846 32.6344 87.2885 33.4204 86.0192 33.4204C84.6635 33.4204 83.6538 32.6073 83.6538 31.6315C83.625 30.6828 84.6635 29.8697 86.0192 29.8697ZM88.0673 47H83.9423V34.857H88.0673V47ZM97.0385 37.8927V42.6632C97.0385 45.3737 97.9615 47.2439 101.481 47.2439C102.49 47.2439 103.76 47.1355 104.769 46.729L103.99 43.9914C103.471 44.154 102.894 44.2624 102.404 44.2624C101.452 44.2624 101.163 43.6932 101.163 42.6361V37.8656H104.135V34.8299H101.163V31.7128H97.0385V34.8299H95.2788V37.8656H97.0385V37.8927ZM108.779 29.8697C110.048 29.8697 111.144 30.7099 111.144 31.6315C111.144 32.6344 110.048 33.4204 108.779 33.4204C107.423 33.4204 106.413 32.6073 106.413 31.6315C106.385 30.6828 107.423 29.8697 108.779 29.8697ZM110.827 47H106.702V34.857H110.827V47ZM117.779 30.0052H113.654V47H117.779V30.0052ZM119.279 45.8616C119.885 46.2682 121.385 47.2982 124.817 47.2982C128.308 47.2982 130.644 45.8887 130.644 43.5306C130.644 39.6275 123.577 39.763 123.577 38.1909C123.577 37.4862 124.615 37.3506 125.279 37.3506C126.635 37.3506 127.875 37.703 128.683 38.218L130.067 35.7514C129.519 35.4533 128.048 34.5859 125.106 34.5859C121.702 34.5859 119.51 35.9683 119.51 38.2722C119.51 42.1753 126.519 41.8501 126.519 43.5577C126.519 44.1269 125.74 44.5063 124.846 44.5063C123.058 44.5063 121.587 44.0727 120.865 43.5035L119.279 45.8616ZM134.452 29.8697C135.721 29.8697 136.817 30.7099 136.817 31.6315C136.817 32.6344 135.721 33.4204 134.452 33.4204C133.096 33.4204 132.087 32.6073 132.087 31.6315C132.087 30.6828 133.125 29.8697 134.452 29.8697ZM136.529 47H132.404V34.857H136.529V47ZM139.269 47H143.394V41.064C143.394 39.3022 144.317 37.9198 145.99 37.9198C147.548 37.9198 148.356 39.0854 148.356 40.8743V47.0271H152.481V41.0369C152.481 39.3022 153.462 37.9198 155.048 37.9198C156.635 37.9198 157.442 39.0854 157.442 40.8743V47.0271H161.567V40.549C161.567 36.7001 159.433 34.613 156.375 34.613C154.154 34.613 152.625 35.6972 151.702 37.1338C150.837 35.4804 149.279 34.613 147.288 34.613C145.558 34.613 144.288 35.3178 143.394 36.2935V34.9112H139.269V47ZM163.183 40.9827C163.183 37.3777 166.096 34.613 169.529 34.613C171.317 34.613 172.731 35.2093 173.712 36.1851V34.857H177.837V47H173.712V45.5905C172.731 46.6205 171.346 47.2439 169.615 47.2439C166.183 47.2439 163.183 44.6148 163.183 40.9827ZM167.163 40.9556C167.163 42.6903 168.519 44.2082 170.423 44.2082C172.356 44.2082 173.712 42.6903 173.712 40.9556C173.683 39.2209 172.356 37.6759 170.423 37.6759C168.519 37.6759 167.163 39.248 167.163 40.9556ZM180.779 37.8927V42.6632C180.779 45.3737 181.702 47.2439 185.221 47.2439C186.231 47.2439 187.5 47.1355 188.51 46.729L187.731 43.9914C187.212 44.154 186.635 44.2624 186.144 44.2624C185.192 44.2624 184.904 43.6932 184.904 42.6361V37.8656H187.875V34.8299H184.904V31.7128H180.779V34.8299H179.019V37.8656H180.779V37.8927Z" fill="#fff"/>
</svg>
