<svg width="57" height="74" viewBox="0 0 57 74" fill="none" xmlns="http://www.w3.org/2000/svg">
<path d="M50 4.25C50 1.9125 48.02 0 45.6 0H10.4C7.98 0 6 1.9125 6 4.25V29.75C6 32.0875 7.98 34 10.4 34H45.6C48.02 34 50 32.0875 50 29.75V4.25ZM45.6 4.25L28 14.875L10.4 4.25H45.6ZM45.6 29.75H10.4V8.5L28 19.125L45.6 8.5V29.75Z" fill="white"/>
<path d="M10.206 69H1.314V56.256H9.882V58.866H4.284V61.26H9.576V63.726H4.284V66.372H10.206V69ZM26.8096 69H23.8036L23.8756 59.982H23.8216L20.5096 69H18.3496L15.1276 59.982H15.0736L15.1456 69H12.2476V56.256H16.6216L19.5196 64.428H19.5916L22.3636 56.256H26.8096V69ZM41.499 69H38.079L37.089 66.498H32.157L31.221 69H27.873L33.219 56.256H36.207L41.499 69ZM36.243 64.032L34.659 59.658L33.039 64.032H36.243ZM45.6483 69H42.5523V56.256H45.6483V69ZM56.3108 69H48.2828V56.256H51.3788V66.318H56.3108V69Z" fill="white"/>
</svg>
