<?xml version="1.0" encoding="UTF-8" standalone="no"?>
<svg
   width="30"
   height="50"
   viewBox="0 0 30 50"
   fill="none"
   version="1.1"
   id="svg6"
   sodipodi:docname="phone.svg"
   inkscape:version="1.2 (dc2aeda, 2022-05-15)"
   xmlns:inkscape="http://www.inkscape.org/namespaces/inkscape"
   xmlns:sodipodi="http://sodipodi.sourceforge.net/DTD/sodipodi-0.dtd"
   xmlns="http://www.w3.org/2000/svg"
   xmlns:svg="http://www.w3.org/2000/svg">
  <defs
     id="defs10" />
  <sodipodi:namedview
     id="namedview8"
     pagecolor="#ffffff"
     bordercolor="#666666"
     borderopacity="1.0"
     inkscape:showpageshadow="2"
     inkscape:pageopacity="0.0"
     inkscape:pagecheckerboard="0"
     inkscape:deskcolor="#d1d1d1"
     showgrid="false"
     inkscape:zoom="2.8780488"
     inkscape:cx="15.114407"
     inkscape:cy="32.313559"
     inkscape:window-width="2560"
     inkscape:window-height="1328"
     inkscape:window-x="1440"
     inkscape:window-y="25"
     inkscape:window-maximized="1"
     inkscape:current-layer="svg6" />
  <path
     d="M 24.2308,0 H 5.7692 C 2.5846,0 0,2.54545 0,5.68182 V 44.3182 C 0,47.4545 2.5846,50 5.7692,50 H 24.2308 C 27.4154,50 30,47.4545 30,44.3182 V 5.68182 C 30,2.54545 27.4154,0 24.2308,0 Z M 15,47.7273 c -1.9154,0 -3.4615,-1.5228 -3.4615,-3.4091 0,-1.8864 1.5461,-3.4091 3.4615,-3.4091 1.9154,0 3.4615,1.5227 3.4615,3.4091 0,1.8863 -1.5461,3.4091 -3.4615,3.4091 z M 25.3846,38.6364 H 4.6154 V 6.81818 h 20.7692 z"
     fill="white"
     id="path2"
     style="fill:#000000;fill-opacity:1" />
</svg>
