<svg width="66" height="82" viewBox="0 0 66 82" fill="none" xmlns="http://www.w3.org/2000/svg">
<path d="M42.2308 0H23.7692C20.5846 0 18 2.54545 18 5.68182V44.3182C18 47.4545 20.5846 50 23.7692 50H42.2308C45.4154 50 48 47.4545 48 44.3182V5.68182C48 2.54545 45.4154 0 42.2308 0ZM33 47.7273C31.0846 47.7273 29.5385 46.2045 29.5385 44.3182C29.5385 42.4318 31.0846 40.9091 33 40.9091C34.9154 40.9091 36.4615 42.4318 36.4615 44.3182C36.4615 46.2045 34.9154 47.7273 33 47.7273ZM43.3846 38.6364H22.6154V6.81818H43.3846V38.6364Z" fill="white"/>
<path d="M10.98 68.18C10.98 69.116 10.734 69.896 10.242 70.52C9.762 71.144 9.156 71.582 8.424 71.834C7.704 72.074 6.87 72.194 5.922 72.194H4.392V77H1.314V64.256H5.994C7.506 64.256 8.712 64.568 9.612 65.192C10.524 65.804 10.98 66.8 10.98 68.18ZM7.902 68.198C7.902 67.226 7.182 66.74 5.742 66.74H4.392V69.746H5.688C7.164 69.746 7.902 69.23 7.902 68.198ZM23.9517 77H20.8737V71.672H15.9057V77H12.8277V64.256H15.9057V69.08H20.8737V64.256H23.9517V77ZM39.8578 70.574C39.8578 72.578 39.2038 74.21 37.8958 75.47C36.5878 76.718 34.9258 77.342 32.9098 77.342C30.9058 77.342 29.2498 76.718 27.9418 75.47C26.6338 74.21 25.9798 72.578 25.9798 70.574C25.9798 68.558 26.6278 66.944 27.9238 65.732C29.2318 64.52 30.8938 63.914 32.9098 63.914C34.9378 63.914 36.5998 64.52 37.8958 65.732C39.2038 66.944 39.8578 68.558 39.8578 70.574ZM36.5638 70.574C36.5638 69.446 36.2218 68.516 35.5378 67.784C34.8538 67.052 33.9778 66.686 32.9098 66.686C31.8418 66.686 30.9658 67.052 30.2818 67.784C29.6098 68.516 29.2738 69.446 29.2738 70.574C29.2738 71.726 29.6098 72.674 30.2818 73.418C30.9658 74.162 31.8418 74.534 32.9098 74.534C33.9778 74.534 34.8538 74.162 35.5378 73.418C36.2218 72.674 36.5638 71.726 36.5638 70.574ZM53.4763 77H49.9843L44.8543 68.666H44.8003L44.8723 77H41.8843V64.256H45.3943L50.5063 72.572H50.5603L50.4883 64.256H53.4763V77ZM64.997 77H56.105V64.256H64.673V66.866H59.075V69.26H64.367V71.726H59.075V74.372H64.997V77Z" fill="white"/>
</svg>
